<?xml version="1.0" encoding="UTF-8" standalone="no"?>
<!-- Created with Inkscape (http://www.inkscape.org/) -->

<svg
   version="1.1"
   id="svg1"
   width="51.460083"
   height="46.840179"
   viewBox="0 0 51.460083 46.840179"
   sodipodi:docname="Simple SWOT Analysis Diagram Infographic.pdf"
   xmlns:inkscape="http://www.inkscape.org/namespaces/inkscape"
   xmlns:sodipodi="http://sodipodi.sourceforge.net/DTD/sodipodi-0.dtd"
   xmlns="http://www.w3.org/2000/svg"
   xmlns:svg="http://www.w3.org/2000/svg">
  <defs
     id="defs1">
    <clipPath
       clipPathUnits="userSpaceOnUse"
       id="clipPath54">
      <path
         d="m 2861.0835,1430.8871 h 162.5 v 150 h -162.5 z"
         transform="matrix(2.4784168,0,0,2.4784168,-7092.9571,-3548.0082)"
         clip-rule="evenodd"
         id="path54" />
    </clipPath>
    <clipPath
       clipPathUnits="userSpaceOnUse"
       id="clipPath56">
      <path
         d="m 2861.0835,1430.8871 h 162.5 v 150 h -162.5 z"
         transform="matrix(2.4784168,0,0,2.4784168,-7092.9571,-3548.0082)"
         clip-rule="evenodd"
         id="path56" />
    </clipPath>
    <clipPath
       clipPathUnits="userSpaceOnUse"
       id="clipPath58">
      <path
         d="m 2861.0835,1430.8871 h 162.5 v 150 h -162.5 z"
         transform="matrix(2.4784168,0,0,2.4784168,-7092.9571,-3548.0082)"
         clip-rule="evenodd"
         id="path58" />
    </clipPath>
  </defs>
  <sodipodi:namedview
     id="namedview1"
     pagecolor="#505050"
     bordercolor="#ffffff"
     borderopacity="1"
     inkscape:showpageshadow="0"
     inkscape:pageopacity="0"
     inkscape:pagecheckerboard="1"
     inkscape:deskcolor="#d1d1d1" />
  <g
     id="g1"
     inkscape:groupmode="layer"
     inkscape:label="1"
     transform="translate(-1100.894,-468.90964)">
    <path
       id="path53"
       d="m 389.987,345.63501 c -127.17099,0 -254.341,0 -381.5100103,0 2.4659993,4.297 4.9330003,8.60101 7.4020003,12.896 62.407997,-115.23002 124.82,-230.46601 187.22999,-345.700993 -4.93601,0 -9.868,0 -14.804,0 64.761,115.235993 129.51802,230.472003 194.282,345.700993 5.41299,9.63699 20.22299,0.99899 14.798,-8.64801 C 332.62799,234.64799 267.871,119.414 203.10899,4.1810002 c -3.09399,-5.506 -11.746,-5.6449999 -14.804,0 C 125.898,119.414 63.486,234.64799 1.075,349.883 c -3.0669999,5.65799 0.7450001,12.89599 7.4020002,12.89599 127.1689998,0 254.3390098,0 381.5099998,0 11.05399,0 11.05399,-17.14398 0,-17.14398 z"
       style="fill:#ff3131;fill-opacity:1;fill-rule:nonzero;stroke:none"
       transform="matrix(0.12911468,0,0,0.12911468,1100.8941,468.90973)"
       clip-path="url(#clipPath54)" />
    <path
       id="path55"
       d="m 206.22701,296.202 c -0.521,10.195 -15.03301,10.27301 -15.545,0 -0.50101,-9.97699 15.03698,-9.88199 15.545,0 0.56399,10.99899 17.71299,11.05499 17.14399,0 -0.731,-14.168 -10.904,-24.08301 -25.02701,-24.792 -14.00599,-0.703 -24.13699,11.836 -24.80499,24.792 -0.725,14.112 11.691,24.362 24.80499,25.03299 14.15801,0.725 24.357,-11.93799 25.02701,-25.03299 0.56101,-11.05399 -16.58,-10.99799 -17.14399,0 z"
       style="fill:#ff3131;fill-opacity:1;fill-rule:nonzero;stroke:none"
       transform="matrix(0.12911468,0,0,0.12911468,1100.8941,468.90973)"
       clip-path="url(#clipPath56)" />
    <path
       id="path57"
       d="m 214.11099,233.866 c -10.588,0 -21.179,0 -31.76899,0 2.85699,2.85699 5.71499,5.71499 8.57099,8.571 -1.22,-33.04601 -2.44099,-66.08901 -3.66099,-99.131 -2.856,2.856 -5.713,5.714 -8.569,8.57001 13.102,0 26.205,0 39.304,0 -2.855,-2.85601 -5.713,-5.71401 -8.57001,-8.57001 -1.295,33.04199 -2.582,66.08499 -3.878,99.131 -0.433,11.05999 16.71299,11.016 17.14399,0 1.293,-33.04601 2.584,-66.08901 3.877,-99.131 0.18601,-4.67101 -4.033,-8.571 -8.56999,-8.571 -13.102,0 -26.20399,0 -39.30499,0 -4.54401,0 -8.746,3.89999 -8.57201,8.571 1.218,33.04199 2.441,66.08499 3.661,99.131 0.17199,4.66499 3.76899,8.56999 8.57,8.56999 10.58901,0 21.18,0 31.76801,0 11.05299,0.001 11.05299,-17.14099 -0.001,-17.14099 z"
       style="fill:#ff3131;fill-opacity:1;fill-rule:nonzero;stroke:none"
       transform="matrix(0.12911468,0,0,0.12911468,1100.8941,468.90973)"
       clip-path="url(#clipPath58)" />
  </g>
</svg>
