<?xml version="1.0" encoding="UTF-8" standalone="no"?>
<!-- Created with Inkscape (http://www.inkscape.org/) -->

<svg
   version="1.1"
   id="svg1"
   width="36.98159"
   height="50.998016"
   viewBox="0 0 36.98159 50.998016"
   sodipodi:docname="Simple SWOT Analysis Diagram Infographic.pdf"
   xmlns:inkscape="http://www.inkscape.org/namespaces/inkscape"
   xmlns:sodipodi="http://sodipodi.sourceforge.net/DTD/sodipodi-0.dtd"
   xmlns="http://www.w3.org/2000/svg"
   xmlns:svg="http://www.w3.org/2000/svg">
  <defs
     id="defs1">
    <clipPath
       clipPathUnits="userSpaceOnUse"
       id="clipPath22">
      <path
         d="m 181.45657,487.29953 h 115.625 v 159.37503 h -115.625 z"
         transform="matrix(5.1939576,0,0,5.1939576,-2431.4064,-2389.5555)"
         clip-rule="evenodd"
         id="path22" />
    </clipPath>
    <clipPath
       clipPathUnits="userSpaceOnUse"
       id="clipPath24">
      <path
         d="m 181.45657,487.29953 h 115.625 v 159.37503 h -115.625 z"
         transform="matrix(5.1939576,0,0,5.1939576,-2431.4064,-2389.5555)"
         clip-rule="evenodd"
         id="path24" />
    </clipPath>
    <clipPath
       clipPathUnits="userSpaceOnUse"
       id="clipPath26">
      <path
         d="m 181.45657,487.29953 h 115.625 v 159.37503 h -115.625 z"
         transform="matrix(5.1939576,0,0,5.1939576,-2431.4064,-2389.5555)"
         clip-rule="evenodd"
         id="path26" />
    </clipPath>
    <clipPath
       clipPathUnits="userSpaceOnUse"
       id="clipPath28">
      <path
         d="m 181.45657,487.29953 h 115.625 v 159.37503 h -115.625 z"
         transform="matrix(5.1939576,0,0,5.1939576,-2431.4064,-2389.5555)"
         clip-rule="evenodd"
         id="path28" />
    </clipPath>
    <clipPath
       clipPathUnits="userSpaceOnUse"
       id="clipPath30">
      <path
         d="m 181.45657,487.29953 h 115.625 v 159.37503 h -115.625 z"
         transform="matrix(5.1939576,0,0,5.1939576,-2431.4064,-2389.5555)"
         clip-rule="evenodd"
         id="path30" />
    </clipPath>
    <clipPath
       clipPathUnits="userSpaceOnUse"
       id="clipPath32">
      <path
         d="m 181.45657,487.29953 h 115.625 v 159.37503 h -115.625 z"
         transform="matrix(5.1939576,0,0,5.1939576,-2431.4064,-2389.5555)"
         clip-rule="evenodd"
         id="path32" />
    </clipPath>
  </defs>
  <sodipodi:namedview
     id="namedview1"
     pagecolor="#505050"
     bordercolor="#ffffff"
     borderopacity="1"
     inkscape:showpageshadow="0"
     inkscape:pageopacity="0"
     inkscape:pagecheckerboard="1"
     inkscape:deskcolor="#d1d1d1" />
  <g
     id="g1"
     inkscape:groupmode="layer"
     inkscape:label="1"
     transform="translate(92.951485,-157.40233)">
    <path
       id="path21"
       d="m -1332.6,974.34998 h 301.52 l 8.4341,-229.83002 56.92996,-69.58002 35.84399,-175.01001 -94.88305,84.33997 -69.58,-67.47199 -128.62,-27.41 78.0141,94.88199 42.17,111.75 21.085,23.19397 -33.736,16.86798 2.1085,172.89996 -27.41,-193.97998 -44.2779,-4.21698 59.0379,-37.953 -130.73,-200.31 -90.666,-35.84399 23.194,-10.542 18.976,-29.51901 -6.3255,-31.62701 54.8211,50.604 94.8819,-23.194 10.542,-56.92901 -196.09,-88.55701 -141.27,208.73999 187.66,269.89001 -31.628,248.79999 v 0.006 z"
       style="fill:#00bf63;fill-opacity:1;fill-rule:nonzero;stroke:none"
       transform="matrix(0.06161005,0,0,0.06161005,-1.2369237,148.68513)"
       clip-path="url(#clipPath22)" />
    <path
       id="path23"
       d="m -1246.1,141.49 -78.014,103.32 103.3199,44.27801 59.038,-99.099 -84.34,-48.49499 v -0.004 z"
       style="fill:#00bf63;fill-opacity:1;fill-rule:nonzero;stroke:none"
       transform="matrix(0.06161005,0,0,0.06161005,-1.2369237,148.68513)"
       clip-path="url(#clipPath24)" />
    <path
       id="path25"
       d="m -1149.1,196.31 -61.146,94.88202 71.689,40.061 -10.542,52.71201 37.953,-25.30201 67.4721,-96.99099 -105.4201,-65.36301 -0.01,9.8e-4 z"
       style="fill:#00bf63;fill-opacity:1;fill-rule:nonzero;stroke:none"
       transform="matrix(0.06161005,0,0,0.06161005,-1.2369237,148.68513)"
       clip-path="url(#clipPath26)" />
    <path
       id="path27"
       d="m -1050,286.98001 92.77399,63.25501 -130.73009,160.25 -84.3399,-40.06101 122.29,-183.44 0.01,-0.004 z"
       style="fill:#00bf63;fill-opacity:1;fill-rule:nonzero;stroke:none"
       transform="matrix(0.06161005,0,0,0.06161005,-1.2369237,148.68513)"
       clip-path="url(#clipPath28)" />
    <path
       id="path29"
       d="m -946.71997,358.67001 65.36298,84.34 -143.38011,128.61999 -56.93,-50.604 134.93999,-162.35001 0.007,-0.006 z"
       style="fill:#00bf63;fill-opacity:1;fill-rule:nonzero;stroke:none"
       transform="matrix(0.06161005,0,0,0.06161005,-1.2369237,148.68513)"
       clip-path="url(#clipPath30)" />
    <path
       id="path31"
       d="m -1166,413.48999 -35.844,61.146 -59.038,-33.736 z"
       style="fill:#00bf63;fill-opacity:1;fill-rule:nonzero;stroke:none"
       transform="matrix(0.06161005,0,0,0.06161005,-1.2369237,148.68513)"
       clip-path="url(#clipPath32)" />
  </g>
</svg>
