<?xml version="1.0" encoding="UTF-8" standalone="no"?>
<!-- Created with Inkscape (http://www.inkscape.org/) -->

<svg
   version="1.1"
   id="svg1"
   width="48.999985"
   height="62.177155"
   viewBox="0 0 48.999985 62.177155"
   sodipodi:docname="Simple SWOT Analysis Diagram Infographic.pdf"
   xmlns:inkscape="http://www.inkscape.org/namespaces/inkscape"
   xmlns:sodipodi="http://sodipodi.sourceforge.net/DTD/sodipodi-0.dtd"
   xmlns="http://www.w3.org/2000/svg"
   xmlns:svg="http://www.w3.org/2000/svg">
  <defs
     id="defs1">
    <clipPath
       clipPathUnits="userSpaceOnUse"
       id="clipPath34">
      <path
         d="m 181.45657,1398.5731 h 153.125 v 196.875 h -153.125 z"
         transform="matrix(0.47600762,0,0,0.47600762,-86.37471,-666.21061)"
         clip-rule="evenodd"
         id="path34" />
    </clipPath>
    <clipPath
       clipPathUnits="userSpaceOnUse"
       id="clipPath36">
      <path
         d="m 181.45657,1398.5731 h 153.125 v 196.875 h -153.125 z"
         transform="matrix(0.47600762,0,0,0.47600762,-86.37471,-666.21061)"
         clip-rule="evenodd"
         id="path36" />
    </clipPath>
    <clipPath
       clipPathUnits="userSpaceOnUse"
       id="clipPath38">
      <path
         d="m 181.45657,1398.5731 h 153.125 v 196.875 h -153.125 z"
         transform="matrix(0.47600762,0,0,0.47600762,-86.37471,-666.21061)"
         clip-rule="evenodd"
         id="path38" />
    </clipPath>
    <clipPath
       clipPathUnits="userSpaceOnUse"
       id="clipPath40">
      <path
         d="m 181.45657,1398.5731 h 153.125 v 196.875 h -153.125 z"
         transform="matrix(0.47600762,0,0,0.47600762,-86.37471,-666.21061)"
         clip-rule="evenodd"
         id="path40" />
    </clipPath>
    <clipPath
       clipPathUnits="userSpaceOnUse"
       id="clipPath42">
      <path
         d="m 181.45657,1398.5731 h 153.125 v 196.875 h -153.125 z"
         transform="matrix(0.47600762,0,0,0.47600762,-86.37471,-666.21061)"
         clip-rule="evenodd"
         id="path42" />
    </clipPath>
    <clipPath
       clipPathUnits="userSpaceOnUse"
       id="clipPath44">
      <path
         d="m 181.45657,1398.5731 h 153.125 v 196.875 h -153.125 z"
         transform="matrix(0.47600762,0,0,0.47600762,-86.37471,-666.21061)"
         clip-rule="evenodd"
         id="path44" />
    </clipPath>
    <clipPath
       clipPathUnits="userSpaceOnUse"
       id="clipPath46">
      <path
         d="m 181.45657,1398.5731 h 153.125 v 196.875 h -153.125 z"
         transform="matrix(0.47600762,0,0,0.47600762,-86.37471,-666.21061)"
         clip-rule="evenodd"
         id="path46" />
    </clipPath>
    <clipPath
       clipPathUnits="userSpaceOnUse"
       id="clipPath48">
      <path
         d="m 181.45657,1398.5731 h 153.125 v 196.875 h -153.125 z"
         transform="matrix(0.47600762,0,0,0.47600762,-86.37471,-666.21061)"
         clip-rule="evenodd"
         id="path48" />
    </clipPath>
    <clipPath
       clipPathUnits="userSpaceOnUse"
       id="clipPath50">
      <path
         d="m 181.45657,1398.5731 h 153.125 v 196.875 h -153.125 z"
         transform="matrix(0.47600762,0,0,0.47600762,-86.37471,-666.21061)"
         clip-rule="evenodd"
         id="path50" />
    </clipPath>
  </defs>
  <sodipodi:namedview
     id="namedview1"
     pagecolor="#505050"
     bordercolor="#ffffff"
     borderopacity="1"
     inkscape:showpageshadow="0"
     inkscape:pageopacity="0"
     inkscape:pagecheckerboard="1"
     inkscape:deskcolor="#d1d1d1" />
  <g
     id="g1"
     inkscape:groupmode="layer"
     inkscape:label="1"
     transform="translate(251.28149,-444.73566)">
    <path
       id="path33"
       d="m 36.360001,10.270001 c -1.099999,0 -2,-0.9000002 -2,-2.0000005 V 2 c 0,-1.10000002 0.900001,-2 2,-2 1.099998,0 2,0.90000004 2,2 v 6.2700005 c 0,1.0999994 -0.900002,2.0000005 -2,2.0000005 z"
       style="fill:#5271ff;fill-opacity:1;fill-rule:nonzero;stroke:none"
       transform="matrix(0.67225812,0,0,0.67225812,-251.2815,444.73565)"
       clip-path="url(#clipPath34)" />
    <path
       id="path35"
       d="M 71.449997,33.349998 H 65.18 c -1.099998,0 -2,-0.900001 -2,-2 0,-1.099998 0.900002,-2 2,-2 h 6.269997 c 1.099998,0 2,0.9 2,2 0,1.099999 -0.899994,2 -2,2 z"
       style="fill:#5271ff;fill-opacity:1;fill-rule:nonzero;stroke:none"
       transform="matrix(0.67225812,0,0,0.67225812,-251.2815,444.73565)"
       clip-path="url(#clipPath36)" />
    <path
       id="path37"
       d="M 8.2700005,33.349998 H 2 c -1.10000002,0 -2,-0.900001 -2,-2 0,-1.099998 0.90000004,-2 2,-2 h 6.2700005 c 1.1000003,0 2.0000005,0.9 2.0000005,2 0,1.099999 -0.9000011,2 -2.0000005,2 z"
       style="fill:#5271ff;fill-opacity:1;fill-rule:nonzero;stroke:none"
       transform="matrix(0.67225812,0,0,0.67225812,-251.2815,444.73565)"
       clip-path="url(#clipPath38)" />
    <path
       id="path39"
       d="m 16.110001,18.85 c -0.510001,0 -1.020001,-0.2 -1.41,-0.59 l -4.43,-4.43 c -0.7800003,-0.78 -0.7800003,-2.05 0,-2.83 0.779999,-0.78 2.05,-0.78 2.829999,0 l 4.430001,4.43 c 0.78,0.780001 0.78,2.05 0,2.83 -0.400002,0.39 -0.91,0.59 -1.42,0.59 z"
       style="fill:#5271ff;fill-opacity:1;fill-rule:nonzero;stroke:none"
       transform="matrix(0.67225812,0,0,0.67225812,-251.2815,444.73565)"
       clip-path="url(#clipPath40)" />
    <path
       id="path41"
       d="m 57.060001,18.85 c -0.509998,0 -1.02,-0.2 -1.409999,-0.59 -0.779999,-0.78 -0.779999,-2.049999 0,-2.83 l 4.43,-4.43 c 0.779999,-0.78 2.049999,-0.78 2.830002,0 0.779998,0.78 0.779998,2.05 0,2.83 l -4.430001,4.43 C 58.09,18.65 57.580002,18.85 57.060001,18.85 Z"
       style="fill:#5271ff;fill-opacity:1;fill-rule:nonzero;stroke:none"
       transform="matrix(0.67225812,0,0,0.67225812,-251.2815,444.73565)"
       clip-path="url(#clipPath42)" />
    <path
       id="path43"
       d="m 49.619999,66.620003 h -25.4 c -1.1,0 -2,-0.900002 -2,-2 v -1.09 c 0,-4.329998 -1.469999,-8.619999 -4.25,-12.420002 C 15.009999,47.07 13.44,42.279999 13.44,37.260002 c 0,-6.450001 2.699999,-12.69 7.409998,-17.11 4.770001,-4.48 11.020001,-6.73 17.57,-6.32 12.130001,0.759998 21.780003,10.879997 21.980004,23.039997 0.09,5.389999 -1.599999,10.490002 -4.89,14.740002 -2.5,3.240001 -3.880001,7.489997 -3.880001,11.970001 v 1.050003 c -0.01,1.099998 -0.900001,1.989998 -2.010002,1.989998 z m -23.41,-4.000004 h 21.440003 c 0.189998,-5.009998 1.84,-9.759998 4.7,-13.459999 2.73,-3.529999 4.130001,-7.759998 4.060002,-12.23 -0.169999,-10.09 -8.169999,-18.489999 -18.23,-19.11 -5.439999,-0.34 -10.619999,1.52 -14.58,5.239999 -3.960001,3.72 -6.149999,8.770001 -6.149999,14.199999 0,4.170002 1.299999,8.14 3.75,11.490002 3.089996,4.23 4.809995,9.009998 5.009994,13.869999 z"
       style="fill:#5271ff;fill-opacity:1;fill-rule:nonzero;stroke:none"
       transform="matrix(0.67225812,0,0,0.67225812,-251.2815,444.73565)"
       clip-path="url(#clipPath44)" />
    <path
       id="path45"
       d="M 49.860001,74.330002 H 23.99 c -1.100001,0 -2,-0.900002 -2,-2 0,-1.099999 0.899999,-2 2,-2 h 25.859998 c 1.099999,0 2,0.900001 2,2 0,1.099998 -0.889999,2 -1.989997,2 z"
       style="fill:#5271ff;fill-opacity:1;fill-rule:nonzero;stroke:none"
       transform="matrix(0.67225812,0,0,0.67225812,-251.2815,444.73565)"
       clip-path="url(#clipPath46)" />
    <path
       id="path47"
       d="m 36.919998,92.489998 c -6.33,0 -11.49,-5.150002 -11.49,-11.489998 v -1.529999 c 0,-1.099998 0.9,-2 2,-2 h 18.97 c 1.099998,0 2,0.900002 2,2 V 81 c 0.01,6.339996 -5.14,11.489998 -11.48,11.489998 z M 29.450001,81.470001 c 0.24,3.910004 3.5,7.019997 7.470001,7.019997 3.970001,0 7.23,-3.110001 7.470001,-7.019997 z"
       style="fill:#5271ff;fill-opacity:1;fill-rule:nonzero;stroke:none"
       transform="matrix(0.67225812,0,0,0.67225812,-251.2815,444.73565)"
       clip-path="url(#clipPath48)" />
    <path
       id="path49"
       d="m 40.77,66.620003 h -7.689998 c -0.919998,0 -1.719999,-0.620003 -1.940001,-1.510002 L 25.5,42.650002 c -0.200001,-0.790001 0.1,-1.619999 0.75,-2.099999 0.65,-0.479999 1.530001,-0.52 2.23,-0.1 l 3.479999,2.11 3.189999,-6.220001 c 0.34,-0.669998 1.029998,-1.09 1.779998,-1.09 0.75,0 1.439999,0.419998 1.779999,1.09 l 3.189999,6.220001 3.479999,-2.11 c 0.689999,-0.419999 1.57,-0.380001 2.23,0.1 0.650002,0.48 0.950001,1.310001 0.75,2.099999 L 42.719994,65.110001 C 42.490002,66 41.689999,66.620003 40.77,66.620003 Z m -6.130001,-4.000004 h 4.580002 l 4.07,-16.219997 -1.150002,0.7 C 41.66,47.390003 41.09,47.470001 40.559998,47.320004 c -0.529999,-0.150002 -0.98,-0.520001 -1.240002,-1.009999 l -2.39,-4.669998 -2.389999,4.669998 c -0.25,0.490002 -0.700001,0.860001 -1.240002,1.009999 -0.529998,0.150001 -1.11,0.07 -1.58,-0.220002 l -1.149999,-0.7 z"
       style="fill:#5271ff;fill-opacity:1;fill-rule:nonzero;stroke:none"
       transform="matrix(0.67225812,0,0,0.67225812,-251.2815,444.73565)"
       clip-path="url(#clipPath50)" />
  </g>
</svg>
